<?xml version="1.0" standalone="no"?>
<!DOCTYPE svg PUBLIC "-//W3C//DTD SVG 20010904//EN"
 "http://www.w3.org/TR/2001/REC-SVG-20010904/DTD/svg10.dtd">
<svg version="1.0" xmlns="http://www.w3.org/2000/svg"
 width="900.000000pt" height="825.000000pt" viewBox="0 0 900.000000 825.000000"
 preserveAspectRatio="xMidYMid meet">
<metadata>
Created by potrace 1.10, written by Peter Selinger 2001-2011
</metadata>
<g transform="translate(0.000000,825.000000) scale(0.100000,-0.100000)"
fill="#000000" stroke="none">
<path d="M1980 5780 c0 -11 4 -28 9 -38 5 -9 17 -37 26 -62 9 -25 23 -58 30
-75 7 -16 20 -49 29 -72 9 -24 23 -62 32 -85 9 -24 22 -56 29 -73 7 -16 20
-48 28 -70 8 -22 29 -76 47 -120 18 -44 39 -98 47 -120 8 -22 21 -53 28 -70 7
-16 19 -48 28 -70 8 -22 29 -76 47 -120 18 -44 39 -98 47 -120 8 -22 21 -53
28 -70 7 -16 20 -49 29 -72 9 -24 23 -62 32 -85 9 -24 22 -56 29 -73 7 -16 21
-50 30 -75 9 -25 23 -58 30 -75 7 -16 19 -48 28 -70 29 -77 50 -130 62 -160 7
-16 20 -48 28 -70 8 -22 29 -76 47 -120 18 -44 39 -98 47 -120 8 -22 21 -53
28 -70 12 -30 33 -83 62 -160 9 -22 21 -53 28 -70 7 -16 21 -50 30 -75 10 -25
23 -58 30 -75 7 -16 20 -48 28 -70 23 -62 48 -127 62 -160 7 -16 21 -50 30
-75 9 -25 23 -58 30 -75 7 -16 19 -48 28 -70 29 -77 50 -130 62 -160 7 -16 21
-50 30 -75 9 -25 25 -61 35 -80 l18 -35 396 -3 c232 -1 404 2 414 7 9 5 25 31
35 58 34 89 49 128 62 158 7 17 20 48 28 70 8 22 29 76 47 120 18 44 39 98 47
120 8 22 21 54 28 70 7 17 20 49 29 73 9 23 23 61 32 85 9 23 22 56 29 72 7
17 21 50 30 75 9 25 23 59 30 75 7 17 19 48 28 70 29 77 50 130 62 160 7 17
21 50 30 75 9 25 23 59 30 75 7 17 20 49 29 73 9 23 23 61 32 85 9 23 22 56
29 72 7 17 20 48 28 70 8 22 29 76 47 120 18 44 39 98 47 120 9 22 21 54 28
70 7 17 21 50 30 75 9 25 23 59 30 75 12 30 31 77 61 158 9 23 22 56 29 72 7
17 19 48 28 70 8 22 29 76 47 120 18 44 39 98 47 120 8 22 21 54 28 70 7 17
20 49 29 73 9 23 23 61 32 85 9 23 22 56 29 72 7 17 21 50 30 75 9 25 23 59
30 75 7 17 20 50 30 75 9 25 23 59 30 75 7 17 16 45 19 63 l8 32 -1726 0
c-1723 0 -1726 0 -1726 -20z m2456 -634 c3 -8 -4 -38 -16 -68 -43 -103 -82
-203 -97 -243 -8 -22 -21 -53 -28 -70 -7 -16 -20 -49 -29 -72 -9 -24 -23 -62
-32 -85 -9 -24 -22 -56 -29 -73 -7 -16 -21 -50 -30 -75 -9 -25 -23 -58 -30
-75 -7 -16 -20 -49 -29 -72 -9 -24 -23 -62 -32 -85 -9 -24 -22 -56 -29 -73 -7
-16 -21 -50 -30 -75 -9 -25 -23 -58 -30 -75 -7 -16 -20 -49 -29 -72 -9 -24
-23 -62 -32 -85 -9 -24 -22 -56 -29 -73 -7 -16 -20 -48 -28 -70 -8 -22 -29
-76 -47 -120 -18 -44 -39 -98 -47 -120 -17 -45 -39 -97 -57 -135 -14 -30 -39
-33 -44 -5 -2 11 -9 34 -17 50 -7 17 -21 50 -30 75 -9 25 -23 59 -30 75 -12
30 -33 83 -62 160 -9 22 -21 54 -28 70 -7 17 -21 50 -30 75 -9 25 -23 59 -30
75 -7 17 -19 48 -28 70 -29 77 -50 130 -62 160 -7 17 -20 48 -28 70 -8 22 -29
76 -47 120 -18 44 -39 98 -47 120 -8 22 -21 54 -28 70 -7 17 -20 49 -29 73 -9
23 -23 61 -32 85 -9 23 -22 56 -29 72 -7 17 -21 50 -30 75 -9 25 -23 59 -30
75 -7 17 -19 48 -28 70 -40 107 -50 131 -58 147 -26 51 -64 48 721 48 618 0
731 -2 736 -14z"/>
<path d="M6129 5768 c-9 -18 -23 -51 -32 -73 -29 -77 -50 -130 -62 -160 -7
-16 -21 -50 -30 -75 -9 -25 -23 -58 -30 -75 -7 -16 -19 -48 -28 -70 -29 -77
-50 -130 -62 -160 -7 -16 -21 -50 -30 -75 -9 -25 -23 -58 -30 -75 -12 -30 -33
-83 -62 -160 -9 -22 -21 -53 -28 -70 -7 -16 -20 -48 -28 -70 -8 -22 -29 -76
-47 -120 -18 -44 -39 -98 -47 -120 -8 -22 -21 -53 -28 -70 -7 -16 -19 -48 -28
-70 -8 -22 -29 -76 -47 -120 -18 -44 -39 -98 -47 -120 -8 -22 -21 -53 -28 -70
-7 -16 -19 -48 -28 -70 -29 -77 -50 -130 -62 -160 -7 -16 -21 -50 -30 -75 -9
-25 -23 -58 -30 -75 -7 -16 -19 -48 -28 -70 -29 -77 -50 -130 -62 -160 -7 -16
-20 -48 -28 -70 -8 -22 -29 -76 -47 -120 -18 -44 -39 -98 -47 -120 -9 -22 -21
-53 -28 -70 -7 -16 -21 -50 -30 -75 -9 -25 -23 -58 -30 -75 -7 -16 -19 -48
-28 -70 -8 -22 -22 -60 -32 -85 -9 -25 -23 -58 -30 -75 -7 -16 -20 -50 -30
-75 -9 -25 -24 -60 -33 -78 -10 -21 -12 -36 -6 -42 7 -7 150 -9 390 -8 l379 3
19 40 c22 45 36 79 61 145 9 25 23 59 30 75 12 30 33 83 62 160 9 22 21 54 28
70 7 17 21 50 30 75 9 25 23 59 30 75 7 17 20 49 29 73 9 23 23 61 32 85 9 23
22 56 29 72 7 17 21 50 30 75 9 25 23 59 30 75 7 17 20 49 29 73 9 23 23 61
32 85 9 23 22 56 29 72 7 17 20 48 28 70 8 22 29 76 47 120 18 44 39 98 47
120 8 22 21 54 28 70 7 17 19 48 28 70 8 22 29 76 47 120 18 44 39 98 47 120
8 22 21 54 28 70 12 30 33 83 62 160 9 22 21 54 28 70 7 17 21 50 30 75 9 25
23 59 30 75 12 30 33 83 62 160 9 22 21 54 28 70 7 17 20 48 28 70 8 22 29 76
47 120 18 44 39 98 47 120 8 22 21 54 28 70 7 17 20 49 29 73 9 23 23 61 32
85 16 41 25 63 58 140 9 21 14 43 11 48 -4 5 -163 9 -388 9 l-382 0 -16 -32z"/>
</g>
</svg>
