<?xml version="1.0" encoding="UTF-8"?>
<svg version="1.0" xmlns="http://www.w3.org/2000/svg"
     width="32" height="32" viewBox="0 0 300 260"
     preserveAspectRatio="xMidYMid meet">
  <metadata>
    Nabla Logo Favicon with Background
  </metadata>
  <rect width="100%" height="100%" fill="#000000" rx="4" ry="4"/>
  <g transform="translate(0.000000,260.000000) scale(0.100000,-0.100000)"
     fill="#ffffff" stroke="none">
    <path d="M1048 1511 c-137 -263 -248 -481 -248 -485 0 -4 39 -5 88 -4 l87 3
      243 470 c134 259 246 476 249 483 4 9 -16 12 -83 12 l-89 0 -247 -479z"/>
    <path d="M1602 1958 c-39 -66 -472 -915 -472 -926 0 -9 125 -12 496 -12 392 0
      495 3 492 13 -4 16 -489 957 -493 957 -2 0 -12 -15 -23 -32z m155 -590 l80
      -158 -213 0 -214 0 61 123 c34 67 81 159 106 205 l45 83 28 -48 c15 -26 63
      -119 107 -205z"/>
  </g>
</svg>
