<?xml version="1.0" standalone="no"?>
<!DOCTYPE svg PUBLIC "-//W3C//DTD SVG 20010904//EN"
 "http://www.w3.org/TR/2001/REC-SVG-20010904/DTD/svg10.dtd">
<svg version="1.0" xmlns="http://www.w3.org/2000/svg"
 width="900.000000pt" height="888.000000pt" viewBox="0 0 900.000000 888.000000"
 preserveAspectRatio="xMidYMid meet">
<metadata>
Created by potrace 1.10, written by Peter Selinger 2001-2011
</metadata>
<!-- Black background rectangle covering entire SVG -->
<rect x="0" y="0" width="100%" height="100%" fill="#000000"/>
<g transform="translate(0.000000,888.000000) scale(0.100000,-0.100000)"
fill="#ffffff" stroke="none">
<!-- White shape paths -->
<path d="M1455 6408 c4 -18 13 -44 20 -58 7 -14 20 -44 29 -67 35 -93 49 -129
61 -158 7 -16 21 -50 30 -75 9 -25 23 -58 30 -75 7 -16 19 -48 28 -70 29 -77
50 -130 62 -160 7 -16 20 -48 28 -70 8 -22 29 -76 47 -120 18 -44 39 -98 47
-120 9 -22 21 -53 28 -70 7 -16 21 -50 30 -75 9 -25 23 -58 31 -73 8 -16 14
-35 14 -42 0 -7 6 -26 14 -42 8 -15 22 -48 31 -73 10 -25 23 -58 30 -75 7 -16
20 -49 29 -72 30 -81 49 -128 61 -158 7 -16 21 -50 30 -75 9 -25 23 -58 30
-75 7 -16 20 -49 29 -72 9 -24 23 -62 32 -85 9 -24 22 -56 29 -73 7 -16 21
-50 30 -75 9 -25 23 -58 30 -75 7 -16 20 -49 29 -72 9 -24 23 -62 32 -85 9
-24 22 -56 29 -73 7 -16 21 -50 30 -75 9 -25 23 -58 30 -75 7 -16 20 -49 29
-72 9 -24 23 -62 32 -85 9 -24 22 -56 29 -73 7 -16 21 -50 30 -75 9 -25 23
-58 30 -75 7 -16 20 -49 29 -72 9 -24 23 -62 32 -85 9 -24 22 -56 29 -73 7
-16 20 -48 28 -70 8 -22 29 -76 47 -120 18 -44 39 -98 47 -120 9 -22 21 -53
28 -70 7 -16 21 -50 30 -75 9 -25 23 -58 30 -75 7 -16 20 -49 29 -72 9 -24 23
-62 32 -85 9 -24 22 -56 29 -73 7 -16 21 -50 30 -75 9 -25 22 -56 29 -70 l12
-25 506 -3 506 -2 20 42 c18 41 30 71 68 171 9 23 22 56 29 72 7 17 21 50 30
75 9 25 23 59 30 75 7 17 20 49 29 73 9 23 23 61 32 85 9 23 22 56 29 72 7 17
20 48 28 70 8 22 29 76 47 120 18 44 39 98 47 120 9 22 21 54 28 70 7 17 21
50 30 75 9 25 23 59 30 75 14 33 39 98 62 160 8 22 21 54 28 70 7 17 19 48 28
70 8 22 29 76 47 120 18 44 39 98 47 120 8 22 21 54 28 70 7 17 19 48 28 70 8
22 29 76 47 120 18 44 39 98 47 120 8 22 21 54 28 70 7 17 20 49 29 73 9 23
23 61 32 85 9 23 22 56 29 72 7 17 21 50 30 75 9 25 23 59 30 75 7 17 19 48
28 70 29 77 50 130 62 160 7 17 20 48 28 70 8 22 29 76 47 120 18 44 39 98 47
120 9 22 21 54 28 70 7 17 21 50 30 75 9 25 23 59 30 75 12 30 33 83 62 160 9
22 21 54 28 70 7 17 21 50 30 75 9 25 23 59 30 75 7 17 20 49 29 73 9 23 23
61 32 85 9 23 22 56 29 72 7 17 21 50 30 75 9 25 23 58 31 73 8 16 14 35 14
43 0 12 -298 14 -2136 14 l-2136 0 7 -32z m3040 -758 c3 -5 -4 -33 -16 -62
-42 -105 -81 -204 -96 -243 -8 -22 -21 -53 -28 -70 -7 -16 -20 -49 -29 -72 -9
-24 -23 -62 -32 -85 -9 -24 -22 -56 -29 -73 -7 -16 -21 -50 -30 -75 -9 -25
-23 -58 -30 -75 -7 -16 -20 -49 -29 -72 -9 -24 -23 -62 -32 -85 -9 -24 -22
-56 -29 -73 -7 -16 -21 -50 -30 -75 -9 -25 -23 -58 -30 -75 -7 -16 -20 -49
-29 -72 -9 -24 -23 -62 -32 -85 -9 -24 -22 -56 -29 -73 -7 -16 -21 -50 -30
-75 -9 -25 -23 -58 -30 -75 -12 -30 -33 -83 -62 -160 -9 -22 -21 -53 -28 -70
-7 -16 -21 -50 -30 -75 -9 -25 -23 -58 -30 -75 -7 -16 -19 -48 -28 -70 -29
-77 -50 -130 -62 -160 -7 -16 -21 -50 -30 -75 -27 -73 -40 -95 -55 -95 -8 0
-17 14 -20 30 -4 17 -11 39 -17 50 -6 11 -18 38 -26 60 -24 65 -49 128 -62
160 -7 17 -20 48 -28 70 -8 22 -29 76 -47 120 -18 44 -39 98 -47 120 -9 22
-21 54 -28 70 -7 17 -21 50 -30 75 -10 25 -24 63 -32 85 -9 22 -21 54 -28 70
-7 17 -21 50 -30 75 -10 25 -23 59 -30 75 -7 17 -20 48 -28 70 -8 22 -29 76
-47 120 -18 44 -39 98 -47 120 -9 22 -21 54 -28 70 -7 17 -20 48 -28 70 -8 22
-29 76 -47 120 -18 44 -39 98 -47 120 -8 22 -21 54 -28 70 -7 17 -20 49 -29
73 -9 23 -23 61 -32 85 -9 23 -22 56 -29 72 -7 17 -21 50 -30 75 -10 25 -22
56 -28 70 -17 40 -37 94 -37 103 0 11 1818 9 1825 -3z"/>
<path d="M6606 6418 c-9 -12 -16 -29 -16 -36 0 -8 -6 -26 -14 -40 -8 -15 -21
-45 -29 -67 -8 -22 -29 -76 -47 -120 -18 -44 -39 -98 -47 -120 -8 -22 -21 -53
-28 -70 -7 -16 -20 -49 -29 -72 -9 -24 -23 -62 -32 -85 -9 -24 -22 -56 -29
-73 -7 -16 -21 -50 -30 -75 -9 -25 -23 -58 -30 -75 -12 -30 -33 -83 -62 -160
-9 -22 -21 -53 -28 -70 -7 -16 -20 -48 -28 -70 -8 -22 -29 -76 -47 -120 -18
-44 -39 -98 -47 -120 -9 -22 -21 -53 -28 -70 -7 -16 -20 -48 -28 -70 -8 -22
-29 -76 -47 -120 -18 -44 -39 -98 -47 -120 -8 -22 -21 -53 -28 -70 -7 -16 -19
-48 -28 -70 -29 -77 -50 -130 -62 -160 -7 -16 -21 -50 -30 -75 -9 -25 -23 -58
-30 -75 -7 -16 -19 -48 -28 -70 -8 -22 -29 -76 -47 -120 -18 -44 -39 -98 -47
-120 -8 -22 -21 -53 -28 -70 -7 -16 -20 -49 -29 -72 -9 -24 -23 -62 -32 -85
-9 -24 -22 -56 -29 -73 -7 -16 -21 -50 -30 -75 -9 -25 -23 -58 -30 -75 -7 -16
-20 -49 -29 -72 -9 -24 -23 -62 -32 -85 -9 -24 -22 -56 -29 -73 -7 -16 -20
-48 -28 -70 -8 -22 -29 -76 -47 -120 -18 -44 -39 -98 -47 -120 -8 -22 -21 -53
-28 -70 -7 -16 -20 -49 -29 -72 -9 -24 -23 -62 -32 -85 -9 -24 -22 -56 -29
-73 -7 -16 -21 -50 -30 -75 -17 -45 -28 -73 -57 -140 -9 -19 -19 -50 -22 -68
l-8 -32 455 0 454 0 16 40 c10 22 24 59 33 83 9 23 22 56 29 72 7 17 20 50 30
75 9 25 23 59 30 75 12 30 31 77 61 158 9 23 22 56 29 72 7 17 19 48 28 70 8
22 29 76 47 120 18 44 39 98 47 120 8 22 21 54 28 70 7 17 20 49 29 73 9 23
23 61 32 85 9 23 22 56 29 72 7 17 21 50 30 75 9 25 23 59 30 75 7 17 19 48
28 70 29 77 50 130 62 160 7 17 20 48 28 70 8 22 29 76 47 120 18 44 39 98 47
120 8 22 21 54 28 70 7 17 20 49 29 73 9 23 23 61 32 85 9 23 22 56 29 72 7
17 21 50 30 75 9 25 23 59 30 75 7 17 19 48 28 70 8 22 29 76 47 120 18 44 39
98 47 120 8 22 21 54 28 70 7 17 20 49 29 73 9 23 23 61 32 85 9 23 22 56 29
72 7 17 21 50 30 75 9 25 23 59 30 75 12 30 33 83 62 160 9 22 21 54 28 70 7
17 20 48 28 70 8 22 29 76 47 120 18 44 39 98 47 120 8 22 21 54 28 70 7 17
19 48 28 70 8 22 29 76 47 120 18 44 39 98 47 120 8 22 21 53 29 68 8 16 14
37 14 48 0 18 -13 19 -449 19 l-450 0 -15 -22z"/>
</g>
</svg>
