<?xml version="1.0" encoding="UTF-8"?>
<svg version="1.1" xmlns="http://www.w3.org/2000/svg" width="732" height="740">
<path d="M0 0 C241.56 0 483.12 0 732 0 C732 244.2 732 488.4 732 740 C490.44 740 248.88 740 0 740 C0 495.8 0 251.6 0 0 Z " fill="#000000" transform="translate(0,0)"/>
<path d="M0 0 C1.1702623 0.00222061 2.3405246 0.00444122 3.54624939 0.00672913 C4.51207191 0.00651009 4.51207191 0.00651009 5.49740601 0.00628662 C7.63473327 0.00698567 9.77197438 0.01477761 11.9092865 0.02259827 C13.3875931 0.02446248 14.86590032 0.02588637 16.34420776 0.02688599 C20.24211827 0.03071093 24.13999174 0.040541 28.03788757 0.05158997 C32.01259358 0.0618046 35.98730554 0.06638372 39.96202087 0.07142639 C47.76607425 0.0821633 55.57009707 0.09923942 63.37413025 0.12025452 C66.73386643 8.13189033 70.02496346 16.16800806 73.2530365 24.23353577 C73.92567787 25.9120311 73.92567787 25.9120311 74.61190796 27.62443542 C76.05473964 31.2267066 77.49592004 34.82963438 78.93663025 38.43275452 C79.43801287 39.686183 79.93939634 40.93961113 80.44078064 42.19303894 C86.26454382 56.75529404 92.05972729 71.3261507 97.68370056 85.9669342 C102.7839674 99.23192899 107.98725519 112.45634653 113.18663025 125.68275452 C113.90926559 127.52110367 113.90926559 127.52110367 114.64649963 129.39659119 C121.89554078 147.83497446 129.15278611 166.27011218 136.43948364 184.69364929 C138.67951202 190.35876337 140.91370359 196.02616339 143.14648438 201.69413757 C144.91093708 206.17192581 146.67758551 210.64884593 148.44459534 215.12562561 C149.3102279 217.32009234 150.17496234 219.51491357 151.03877258 221.71009827 C152.23930297 224.76053114 153.44305612 227.80967319 154.64756775 230.85853577 C155.0103331 231.78253677 155.37309845 232.70653778 155.74685669 233.65853882 C156.24564079 234.91829781 156.24564079 234.91829781 156.75450134 236.20350647 C157.04457062 236.93938492 157.33463989 237.67526337 157.63349915 238.43344116 C158.2517778 240.11895929 158.2517778 240.11895929 159.37413025 241.12025452 C159.7438092 240.16940979 159.7438092 240.16940979 160.12095642 239.19935608 C161.26637629 236.25574731 162.41399569 233.31300051 163.56163025 230.37025452 C163.94899353 229.3738092 164.33635681 228.37736389 164.73545837 227.35072327 C166.68472472 222.35673511 168.66855601 217.38303684 170.745224 212.44056702 C174.0357837 204.59065982 177.13379157 196.66585236 180.24913025 188.74525452 C180.90981368 187.06812238 181.57062364 185.39104009 182.23155212 183.71400452 C183.60085433 180.23926125 184.9696189 176.76430694 186.33799744 173.28919983 C189.20407011 166.01179345 192.07682317 158.737026 194.94944763 151.46220398 C195.87473417 149.11872497 196.7997701 146.77514721 197.72471619 144.43153381 C200.6292405 137.07218103 203.53462833 129.71317201 206.44267273 122.35520935 C207.80171424 118.91641277 209.16032533 115.47744621 210.51890564 112.03846741 C211.1607815 110.41403388 211.80286347 108.78968178 212.44517517 107.16542053 C213.34130327 104.8992756 214.23679031 102.63287876 215.13194275 100.36634827 C215.4113269 99.65948883 215.69071106 98.95262939 215.9785614 98.22434998 C218.17668623 92.65088888 220.31447942 87.05612801 222.42442322 81.44862366 C223.37413025 79.12025452 223.37413025 79.12025452 224.37413025 78.12025452 C226.49094342 78.02603711 228.61093783 78.00282691 230.72984314 78.00672913 C231.72492638 78.00651009 231.72492638 78.00651009 232.7401123 78.00628662 C234.9423698 78.00698571 237.1445437 78.01477787 239.3467865 78.02259827 C240.86993361 78.02446246 242.39308132 78.02588636 243.91622925 78.02688599 C247.93250676 78.03071105 251.94874832 78.04054124 255.9650116 78.05158997 C260.06036391 78.06180433 264.15572201 78.06638366 268.25108337 78.07142639 C276.29211553 78.08216352 284.33311842 78.0992398 292.37413025 78.12025452 C288.31048913 89.02787471 284.1629148 99.89967412 279.93663025 110.74525452 C279.49068008 111.89093903 279.49068008 111.89093903 279.03572083 113.05976868 C272.18383116 130.66045151 265.24379575 148.22615926 258.29612732 165.78919983 C255.63244874 172.52369025 252.97162307 179.25930758 250.31163025 185.99525452 C250.01296051 186.75148102 249.71429077 187.50770752 249.40657043 188.28684998 C242.94271352 204.65578933 236.51235318 221.03786816 230.0811615 237.41966248 C222.99483685 255.46902197 215.88489843 273.50885113 208.73985291 291.53504944 C208.41244614 292.36170105 208.08503937 293.18835266 207.74771118 294.04005432 C207.15600237 295.53393104 206.56379837 297.02761181 205.97088623 298.52101135 C203.39059109 305.03663095 200.89032087 311.57815889 198.37413025 318.12025452 C172.63413025 318.12025452 146.89413025 318.12025452 120.37413025 318.12025452 C117.07041892 310.85208959 113.92027767 303.6528491 111.03819275 296.22572327 C110.64245056 295.21341644 110.24670837 294.20110962 109.838974 293.15812683 C108.99449119 290.99698148 108.15136238 288.83530662 107.30949402 286.67314148 C105.51873955 282.07397453 103.72138675 277.47739479 101.92451477 272.88061523 C101.0164714 270.55739748 100.10877646 268.2340435 99.20143127 265.91055298 C95.49041942 256.40876834 91.75156348 246.91824072 87.99913025 237.43275452 C81.84963778 221.87985379 75.73511153 206.31332197 69.62413025 190.74525452 C61.66041641 170.45728247 53.66466354 150.18229374 45.62705994 129.92347717 C43.87400319 125.50409112 42.12408664 121.08347895 40.37785339 116.66139221 C39.69520418 114.93312116 39.01170045 113.20518743 38.32743835 111.47755432 C37.32775641 108.95097337 36.33270881 106.42261697 35.338974 103.89369202 C35.03794266 103.13488739 34.73691132 102.37608276 34.42675781 101.59428406 C32.37413025 96.34924309 32.37413025 96.34924309 32.37413025 94.12025452 C31.71413025 94.12025452 31.05413025 94.12025452 30.37413025 94.12025452 C30.20021255 94.73182404 30.02629486 95.34339355 29.84710693 95.97349548 C28.09293468 101.99787378 26.04026834 107.80974676 23.698349 113.62806702 C23.16222237 114.97562325 23.16222237 114.97562325 22.61526489 116.35040283 C21.84079582 118.29586276 21.06445407 120.24057805 20.28642273 122.18461609 C18.14698562 127.53086333 16.02167203 132.88273262 13.8936615 138.23353577 C13.22101257 139.92306618 13.22101257 139.92306618 12.53477478 141.64672852 C7.86779414 153.37505153 3.25379006 165.12401685 -1.35542297 176.87513733 C-8.40228527 194.84073718 -15.46346573 212.80054656 -22.56336975 230.74525452 C-23.07812866 232.0462912 -23.07812866 232.0462912 -23.60328674 233.37361145 C-24.95493067 236.78958573 -26.30670528 240.20550825 -27.65867615 243.62135315 C-30.95932192 251.96113182 -34.2549303 260.30289604 -37.54844666 268.64549255 C-38.48355553 271.01390169 -39.41907727 273.38214744 -40.35462952 275.75038147 C-43.2387566 283.05373632 -46.11406148 290.36036581 -48.96961975 297.67494202 C-49.48929038 299.00445962 -50.00898373 300.33396834 -50.52870178 301.66346741 C-51.48578661 304.11204138 -52.4393416 306.56189268 -53.39100647 309.0125885 C-54.01386536 310.6069574 -54.01386536 310.6069574 -54.64930725 312.23353577 C-55.00943909 313.15948547 -55.36957092 314.08543518 -55.74061584 315.03944397 C-56.62586975 317.12025452 -56.62586975 317.12025452 -57.62586975 318.12025452 C-59.80392694 318.21454794 -61.98508255 318.2376799 -64.16517639 318.23377991 C-64.84807236 318.23392593 -65.53096832 318.23407196 -66.23455811 318.23422241 C-68.50174589 318.23352328 -70.76885249 318.22573092 -73.036026 318.21791077 C-74.60401362 318.21604659 -76.17200182 318.21462268 -77.73999023 318.21362305 C-81.87463478 318.20979786 -86.00924441 318.19996758 -90.14387512 318.18891907 C-94.35987373 318.17870496 -98.57587797 318.17412543 -102.79188538 318.16908264 C-111.06989622 318.1583453 -119.34787865 318.14126888 -127.62586975 318.12025452 C-125.54515008 310.69792396 -122.9620207 303.56630941 -120.11805725 296.40541077 C-119.68047089 295.29415329 -119.24288452 294.18289581 -118.79203796 293.03796387 C-117.36549741 289.41802893 -115.93322746 285.80039115 -114.50086975 282.18275452 C-113.49810488 279.64270989 -112.49657695 277.10217809 -111.49501038 274.56166077 C-108.99858937 268.23168426 -106.49692914 261.90379187 -103.99342346 255.57661438 C-102.75606184 252.44930245 -101.51936468 249.32172923 -100.28309631 246.19398499 C-97.55879669 239.3015486 -94.83418616 232.40923681 -92.1063385 225.51820374 C-85.73012019 209.40689008 -79.39701879 193.27870061 -73.06483459 177.15003967 C-67.14370742 162.0686877 -61.21304402 146.99124169 -55.25758362 131.92341614 C-49.88011454 118.31617595 -44.5295729 104.69842257 -39.18251038 91.07920837 C-31.84817014 72.39830986 -24.50521872 53.72092607 -17.12586975 35.05775452 C-16.78251587 34.18913788 -16.43916199 33.32052124 -16.08540344 32.42558289 C-14.22299142 27.7148591 -12.3575674 23.00534703 -10.48866272 18.29719543 C-9.61117111 16.08316791 -8.7375284 13.86764605 -7.864151 11.6519928 C-7.31609121 10.26766901 -6.76791992 8.88338936 -6.21961975 7.49916077 C-5.74202209 6.28945618 -5.26442444 5.07975159 -4.77235413 3.83338928 C-3.21469654 0.14722047 -3.21469654 0.14722047 0 0 Z " fill="#FEFEFE" transform="translate(282.62586975097656,224.87974548339844)"/>
<path d="M0 0 C0.69771011 0.00359528 1.39542023 0.00719055 2.11427307 0.01089478 C2.84593689 0.01074875 3.57760071 0.01060272 4.33143616 0.01045227 C6.76094989 0.0111515 9.19038789 0.01894432 11.61988831 0.02676392 C13.29997719 0.02862806 14.98006662 0.03005198 16.66015625 0.03105164 C21.09071849 0.03487709 25.52124815 0.04470761 29.95179749 0.05575562 C34.46941182 0.06596914 38.98703139 0.07054913 43.50465393 0.07559204 C52.37511098 0.08632986 61.24554381 0.10340661 70.11598206 0.12442017 C69.17555907 2.80894436 68.23341273 5.49284344 67.29029846 8.17642212 C67.02749588 8.92718269 66.7646933 9.67794327 66.493927 10.45145416 C64.01896696 17.48622154 61.295339 24.40145933 58.49098206 31.31192017 C57.56107462 33.61782107 56.63140151 35.92381648 55.70191956 38.22988892 C54.51856018 41.16508423 53.33520081 44.10027954 52.11598206 47.12442017 C48.15598206 57.02442017 44.19598206 66.92442017 40.11598206 77.12442017 C15.36598206 77.12442017 -9.38401794 77.12442017 -34.88401794 77.12442017 C-34.11250807 73.26687081 -33.26770522 70.25488681 -31.84617615 66.65420532 C-31.42516129 65.58183624 -31.00414642 64.50946716 -30.57037354 63.40460205 C-29.88451424 61.67649796 -29.88451424 61.67649796 -29.18479919 59.91348267 C-28.7121312 58.71315399 -28.2394632 57.51282532 -27.75247192 56.27612305 C-26.49427626 53.08125455 -25.23101096 49.88841402 -23.96672058 46.69595337 C-22.70222546 43.50019472 -21.44280345 40.30243864 -20.18284607 37.10488892 C-17.82899182 31.13360893 -15.46732595 25.16544728 -13.10185242 19.19876099 C-12.02309193 16.47550305 -10.94777289 13.75092157 -9.87376404 11.02578735 C-9.32917338 9.64974411 -8.7844325 8.2737603 -8.23948669 6.89785767 C-7.79629089 5.77556763 -7.35309509 4.65327759 -6.89646912 3.49697876 C-5.22877253 -0.41106933 -4.11361775 0.00894137 0 0 Z " fill="#FEFEFE" transform="translate(466.88401794433594,225.87557983398438)"/>
</svg>
