<svg version="1.1" id="Layer_1" xmlns="http://www.w3.org/2000/svg" xmlns:xlink="http://www.w3.org/1999/xlink" x="0px" y="0px"
	 width="100%" viewBox="0 0 1048 1046" enable-background="new 0 0 1048 1046" xml:space="preserve">
<path fill="#060708" opacity="1.000000" stroke="none" 
	d="
M479.000000,1047.000000 
	C319.352264,1047.000000 160.204559,1047.000000 1.028419,1047.000000 
	C1.028419,698.393799 1.028419,349.787567 1.028419,1.090672 
	C350.231293,1.090672 699.462646,1.090672 1048.846924,1.090672 
	C1048.846924,349.666626 1048.846924,698.333313 1048.846924,1047.000000 
	C859.120422,1047.000000 669.310242,1047.000000 479.000000,1047.000000 
M661.008728,631.984070 
	C648.753052,631.984070 636.497375,631.984070 624.406616,631.984070 
	C624.406616,670.090088 624.406616,707.472656 624.406616,744.716675 
	C659.078613,744.716675 693.343506,744.716675 728.097412,744.716675 
	C728.097412,707.645142 728.097412,670.855286 729.022522,634.009949 
	C741.262451,634.009949 753.502319,634.009949 766.086609,634.009949 
	C766.086609,596.912415 766.086609,560.496277 767.010803,524.011047 
	C781.255432,524.011047 795.500061,524.011047 810.105103,524.011047 
	C810.105103,485.923096 810.105103,448.491882 811.028931,411.007629 
	C823.609680,411.007629 836.190430,411.007629 848.679199,411.007629 
	C848.679199,373.314331 848.679199,336.280792 848.679199,299.318909 
	C813.988586,299.318909 779.619690,299.318909 744.903259,299.318909 
	C744.903259,336.742096 744.903259,373.846985 743.978821,410.993408 
	C731.402771,410.993408 718.826721,410.993408 705.920288,410.993408 
	C705.920288,448.403534 705.920288,485.158203 704.998535,521.986267 
	C690.759033,521.986267 676.519470,521.986267 661.934692,521.986267 
	C661.934692,559.068726 661.934692,595.485596 661.008728,631.984070 
M288.986664,522.004700 
	C288.986664,558.882324 288.986664,595.760010 288.986664,633.065369 
	C304.016541,633.065369 318.459503,633.065369 332.984009,633.991272 
	C332.984009,670.887024 332.984009,707.782776 332.984009,744.685547 
	C395.647186,744.685547 457.658325,744.685547 520.097412,744.685547 
	C520.097412,707.269897 520.097412,670.167664 521.022522,633.009949 
	C535.260620,633.009949 549.498779,633.009949 564.067993,633.009949 
	C564.067993,595.246094 564.067993,558.160156 564.992371,521.010315 
	C579.905823,521.010315 594.819336,521.010315 610.105591,521.010315 
	C610.105591,483.930481 610.105591,447.495453 611.028381,411.007629 
	C625.284485,411.007629 639.540649,411.007629 653.626892,411.007629 
	C653.626892,373.261536 653.626892,336.201416 653.626892,299.222473 
	C500.984406,299.222473 348.715149,299.222473 196.256866,299.222473 
	C196.256866,336.504456 196.256866,373.563721 196.256866,411.060364 
	C211.305344,411.060364 226.099869,411.060364 240.985336,411.984863 
	C240.985336,448.210693 240.985336,484.436523 240.985336,521.080017 
	C257.350037,521.080017 273.131775,521.080017 288.986664,522.004700 
z"/>
<path fill="#FFC100" opacity="1.000000" stroke="none" 
	d="
M240.894379,411.060364 
	C226.099869,411.060364 211.305344,411.060364 196.256866,411.060364 
	C196.256866,373.563721 196.256866,336.504456 196.256866,299.222473 
	C348.715149,299.222473 500.984406,299.222473 653.626892,299.222473 
	C653.626892,336.201416 653.626892,373.261536 653.626892,411.007629 
	C639.540649,411.007629 625.284485,411.007629 610.092407,411.019409 
	C574.735962,411.041046 540.315430,411.050903 505.433014,411.034180 
	C451.682465,411.025299 398.393829,411.042999 344.630096,411.046844 
	C309.734802,411.042114 275.314606,411.051239 240.894379,411.060364 
z"/>
<path fill="#FF5700" opacity="1.000000" stroke="none" 
	d="
M520.097412,633.065430 
	C520.097412,670.167664 520.097412,707.269897 520.097412,744.685547 
	C457.658325,744.685547 395.647186,744.685547 332.984009,744.685547 
	C332.984009,707.782776 332.984009,670.887024 333.416992,633.511902 
	C351.508057,633.021667 369.166382,633.046997 386.824036,632.951782 
	C388.906281,632.940613 390.984924,632.268066 393.527252,631.942993 
	C415.971069,631.956543 437.952881,631.929382 460.273499,632.150879 
	C462.567230,632.599670 464.521576,632.966736 466.477234,632.973999 
	C484.350494,633.040100 502.223999,633.043640 520.097412,633.065430 
z"/>
<path fill="#FFA400" opacity="1.000000" stroke="none" 
	d="
M810.105103,411.060699 
	C810.105103,448.491882 810.105103,485.923096 810.105103,524.011047 
	C795.500061,524.011047 781.255432,524.011047 766.076416,524.024414 
	C747.243652,524.024963 729.344604,524.072754 711.447571,523.908203 
	C709.599182,523.891174 707.762451,522.608337 705.920288,521.912842 
	C705.920288,485.158203 705.920288,448.403534 705.920288,410.993408 
	C718.826721,410.993408 731.402771,410.993408 744.915039,410.984558 
	C767.269226,411.004059 788.687195,411.032379 810.105103,411.060699 
z"/>
<path fill="#FF7700" opacity="1.000000" stroke="none" 
	d="
M520.559937,633.037720 
	C502.223999,633.043640 484.350494,633.040100 466.477234,632.973999 
	C464.521576,632.966736 462.567230,632.599670 460.301208,631.688232 
	C459.990173,594.100098 459.990173,557.223145 459.990173,519.934814 
	C475.701019,519.934814 490.812225,519.934814 506.396606,519.950439 
	C523.854614,519.977295 540.839600,519.952026 557.823914,520.047302 
	C559.907104,520.058960 561.986694,520.716064 564.067993,521.074158 
	C564.067993,558.160156 564.067993,595.246094 564.067993,633.009949 
	C549.498779,633.009949 535.260620,633.009949 520.559937,633.037720 
z"/>
<path fill="#FF7700" opacity="1.000000" stroke="none" 
	d="
M393.065247,631.902161 
	C390.984924,632.268066 388.906281,632.940613 386.824036,632.951782 
	C369.166382,633.046997 351.508057,633.021667 333.376221,633.048950 
	C318.459503,633.065369 304.016541,633.065369 288.986664,633.065369 
	C288.986664,595.760010 288.986664,558.882324 289.422424,521.521362 
	C306.185089,521.025269 322.512268,521.051147 338.838654,520.952148 
	C340.921021,520.939514 342.999390,520.275269 345.540558,519.949585 
	C361.573273,519.986267 377.145050,519.986267 393.065247,519.986267 
	C393.065247,557.733521 393.065247,594.817871 393.065247,631.902161 
z"/>
<path fill="#FFC100" opacity="1.000000" stroke="none" 
	d="
M810.567017,411.034180 
	C788.687195,411.032379 767.269226,411.004059 745.377319,410.963806 
	C744.903259,373.846985 744.903259,336.742096 744.903259,299.318909 
	C779.619690,299.318909 813.988586,299.318909 848.679199,299.318909 
	C848.679199,336.280792 848.679199,373.314331 848.679199,411.007629 
	C836.190430,411.007629 823.609680,411.007629 810.567017,411.034180 
z"/>
<path fill="#FF5700" opacity="1.000000" stroke="none" 
	d="
M728.097412,634.065430 
	C728.097412,670.855286 728.097412,707.645142 728.097412,744.716675 
	C693.343506,744.716675 659.078613,744.716675 624.406616,744.716675 
	C624.406616,707.472656 624.406616,670.090088 624.406616,631.984070 
	C636.497375,631.984070 648.753052,631.984070 661.635742,632.306519 
	C664.267822,633.085938 666.270569,633.928162 668.278320,633.940247 
	C688.217529,634.060547 708.157593,634.043579 728.097412,634.065430 
z"/>
<path fill="#FF7700" opacity="1.000000" stroke="none" 
	d="
M728.559937,634.037720 
	C708.157593,634.043579 688.217529,634.060547 668.278320,633.940247 
	C666.270569,633.928162 664.267822,633.085938 662.098755,632.265747 
	C661.934692,595.485596 661.934692,559.068726 661.934692,521.986267 
	C676.519470,521.986267 690.759033,521.986267 705.459412,521.949585 
	C707.762451,522.608337 709.599182,523.891174 711.447571,523.908203 
	C729.344604,524.072754 747.243652,524.024963 765.614380,524.058960 
	C766.086609,560.496277 766.086609,596.912415 766.086609,634.009949 
	C753.502319,634.009949 741.262451,634.009949 728.559937,634.037720 
z"/>
<path fill="#FFA400" opacity="1.000000" stroke="none" 
	d="
M345.079620,519.912842 
	C342.999390,520.275269 340.921021,520.939514 338.838654,520.952148 
	C322.512268,521.051147 306.185089,521.025269 289.385834,521.058960 
	C273.131775,521.080017 257.350037,521.080017 240.985336,521.080017 
	C240.985336,484.436523 240.985336,448.210693 240.939850,411.522614 
	C275.314606,411.051239 309.734802,411.042114 344.584778,411.509094 
	C345.036255,447.961090 345.057922,483.936981 345.079620,519.912842 
z"/>
<path fill="#FFA400" opacity="1.000000" stroke="none" 
	d="
M564.530151,521.042236 
	C561.986694,520.716064 559.907104,520.058960 557.823914,520.047302 
	C540.839600,519.952026 523.854614,519.977295 506.429535,519.488464 
	C505.957794,483.027527 505.926331,447.044159 505.894897,411.060760 
	C540.315430,411.050903 574.735962,411.041046 609.631042,411.045776 
	C610.105591,447.495453 610.105591,483.930481 610.105591,521.010315 
	C594.819336,521.010315 579.905823,521.010315 564.530151,521.042236 
z"/>
<path fill="#060708" opacity="1.000000" stroke="none" 
	d="
M505.433014,411.034180 
	C505.926331,447.044159 505.957794,483.027527 505.956299,519.472900 
	C490.812225,519.934814 475.701019,519.934814 459.990173,519.934814 
	C459.990173,557.223145 459.990173,594.100098 459.962433,631.439575 
	C437.952881,631.929382 415.971069,631.956543 393.527252,631.942993 
	C393.065247,594.817871 393.065247,557.733521 393.065247,519.986267 
	C377.145050,519.986267 361.573273,519.986267 345.540558,519.949585 
	C345.057922,483.936981 345.036255,447.961090 345.059875,411.522949 
	C398.393829,411.042999 451.682465,411.025299 505.433014,411.034180 
z"/>
</svg>