<svg version="1.1" id="Layer_1" xmlns="http://www.w3.org/2000/svg" xmlns:xlink="http://www.w3.org/1999/xlink" x="0px" y="0px"
	 width="100%" viewBox="0 0 1274 1272" enable-background="new 0 0 1274 1272" xml:space="preserve">
<path fill="#060708" opacity="1.000000" stroke="none" 
	d="
M836.000000,1273.000000 
	C557.333313,1273.000000 279.166656,1273.000000 1.000000,1273.000000 
	C1.000000,849.000000 1.000000,425.000000 1.000000,1.000000 
	C425.666656,1.000000 850.333313,1.000000 1275.000000,1.000000 
	C1275.000000,425.000000 1275.000000,849.000000 1275.000000,1273.000000 
	C1128.833374,1273.000000 982.666687,1273.000000 836.000000,1273.000000 
M931.022522,810.009949 
	C948.261353,810.009949 965.500183,810.009949 983.086609,810.009949 
	C983.086609,757.912170 983.086609,706.496216 984.010803,655.011047 
	C1004.254272,655.011047 1024.497803,655.011047 1045.000000,655.011047 
	C1045.000000,652.378723 1044.998535,650.401489 1045.000000,648.424194 
	C1045.034912,598.302979 1045.070068,548.181824 1046.028076,498.007660 
	C1063.941040,498.007660 1081.854004,498.007660 1099.679443,498.007660 
	C1099.679443,445.315460 1099.679443,393.281952 1099.679443,341.318665 
	C1050.989502,341.318665 1002.620728,341.318665 954.000000,341.318665 
	C954.000000,343.613403 954.001099,345.591339 953.999817,347.569244 
	C953.967896,397.696686 953.935791,447.824097 952.978394,497.993408 
	C935.070435,497.993408 917.162476,497.993408 898.920288,497.993408 
	C898.920288,550.070129 898.920288,601.491455 897.998535,652.986267 
	C878.093079,652.986267 858.187622,652.986267 837.934692,652.986267 
	C837.934692,704.735596 837.934692,755.818970 837.008728,806.984070 
	C819.420959,806.984070 801.833191,806.984070 784.406616,806.984070 
	C784.406616,859.756104 784.406616,911.805054 784.406616,963.716736 
	C833.078308,963.716736 881.342957,963.716736 930.000000,963.716736 
	C930.000000,961.473511 929.998840,959.508789 930.000122,957.544067 
	C930.032410,908.384521 930.064880,859.224976 931.022522,810.009949 
M701.992371,651.010315 
	C722.571777,651.010315 743.151184,651.010315 764.000000,651.010315 
	C764.000000,648.390625 763.998779,646.414551 764.000183,644.438477 
	C764.035095,595.645752 764.070374,546.853088 765.028381,498.007629 
	C785.616699,498.007629 806.205017,498.007629 826.626892,498.007629 
	C826.626892,445.262115 826.626892,393.202240 826.626892,341.222473 
	C612.984436,341.222473 399.715210,341.222473 186.256866,341.222473 
	C186.256866,393.504364 186.256866,445.563629 186.256866,498.060364 
	C207.305786,498.060364 228.100082,498.060364 248.985336,498.984863 
	C248.985336,549.543762 248.985336,600.102722 248.985336,651.080017 
	C271.683807,651.080017 293.798676,651.080017 315.986664,652.004700 
	C315.986664,703.882141 315.986664,755.759583 315.986664,808.065369 
	C337.017151,808.065369 357.459808,808.065369 377.984009,808.991272 
	C377.984009,860.553345 377.984009,912.115479 377.984009,963.685547 
	C465.313629,963.685547 551.991394,963.685547 639.000000,963.685547 
	C639.000000,961.402466 638.998901,959.430847 639.000183,957.459229 
	C639.032471,907.661316 639.064941,857.863342 640.022522,808.009949 
	C660.259521,808.009949 680.496582,808.009949 701.067993,808.009949 
	C701.067993,755.246216 701.067993,703.160217 701.992371,651.010315 
z"/>
<path fill="#FFC100" opacity="1.000000" stroke="none" 
	d="
M248.894379,498.060364 
	C228.100082,498.060364 207.305786,498.060364 186.256866,498.060364 
	C186.256866,445.563629 186.256866,393.504364 186.256866,341.222473 
	C399.715210,341.222473 612.984436,341.222473 826.626892,341.222473 
	C826.626892,393.202240 826.626892,445.262115 826.626892,498.007629 
	C806.205017,498.007629 785.616699,498.007629 764.092407,498.019409 
	C715.069275,498.041016 666.981995,498.050812 618.432861,498.034119 
	C543.682373,498.025299 469.393768,498.042999 394.630096,498.046844 
	C345.734802,498.042114 297.314606,498.051239 248.894379,498.060364 
z"/>
<path fill="#FF5700" opacity="1.000000" stroke="none" 
	d="
M639.097412,808.065430 
	C639.064941,857.863342 639.032471,907.661316 639.000183,957.459229 
	C638.998901,959.430847 639.000000,961.402466 639.000000,963.685547 
	C551.991394,963.685547 465.313629,963.685547 377.984009,963.685547 
	C377.984009,912.115479 377.984009,860.553345 378.416992,808.511841 
	C404.507751,808.021606 430.165680,808.036011 455.823242,807.952515 
	C457.905029,807.945740 459.984619,807.268066 462.527252,806.942932 
	C493.971039,806.956604 524.952820,806.929504 556.273438,807.151001 
	C558.736877,807.599792 560.861206,807.968994 562.986389,807.974182 
	C588.356628,808.035889 613.727051,808.043640 639.097412,808.065430 
z"/>
<path fill="#FF7700" opacity="1.000000" stroke="none" 
	d="
M462.065247,806.902161 
	C459.984619,807.268066 457.905029,807.945740 455.823242,807.952515 
	C430.165680,808.036011 404.507751,808.021606 378.376221,808.048950 
	C357.459808,808.065369 337.017151,808.065369 315.986664,808.065369 
	C315.986664,755.759583 315.986664,703.882141 316.422424,651.521362 
	C340.851501,651.025330 364.844971,651.039368 388.838043,650.952942 
	C390.919800,650.945435 392.999146,650.275269 395.540558,649.949585 
	C417.905609,649.986267 439.809723,649.986267 462.065247,649.986267 
	C462.065247,702.733643 462.065247,754.817932 462.065247,806.902161 
z"/>
<path fill="#FFC100" opacity="1.000000" stroke="none" 
	d="
M953.903687,497.951538 
	C953.935791,447.824097 953.967896,397.696686 953.999817,347.569244 
	C954.001099,345.591339 954.000000,343.613403 954.000000,341.318665 
	C1002.620728,341.318665 1050.989502,341.318665 1099.679443,341.318665 
	C1099.679443,393.281952 1099.679443,445.315460 1099.679443,498.007660 
	C1081.854004,498.007660 1063.941040,498.007660 1045.092041,498.019470 
	C1014.071960,498.004669 983.987854,497.978088 953.903687,497.951538 
z"/>
<path fill="#FFA400" opacity="1.000000" stroke="none" 
	d="
M953.441040,497.972473 
	C983.987854,497.978088 1014.071960,498.004669 1044.630615,498.045959 
	C1045.070068,548.181824 1045.034912,598.302979 1045.000000,648.424194 
	C1044.998535,650.401489 1045.000000,652.378723 1045.000000,655.011047 
	C1024.497803,655.011047 1004.254272,655.011047 983.076416,655.024414 
	C956.413086,655.025208 930.683838,655.059021 904.955627,654.909729 
	C902.940063,654.898071 900.931885,653.608521 898.920288,652.912842 
	C898.920288,601.491455 898.920288,550.070129 898.920288,497.993408 
	C917.162476,497.993408 935.070435,497.993408 953.441040,497.972473 
z"/>
<path fill="#FF7700" opacity="1.000000" stroke="none" 
	d="
M639.559937,808.037720 
	C613.727051,808.043640 588.356628,808.035889 562.986389,807.974182 
	C560.861206,807.968994 558.736877,807.599792 556.301147,806.688354 
	C555.990112,754.100769 555.990112,702.224426 555.990112,649.934875 
	C577.367432,649.934875 598.145386,649.934875 619.396606,649.950439 
	C644.854065,649.977356 669.838318,649.963379 694.822266,650.046448 
	C696.905334,650.053406 698.986145,650.716125 701.067993,651.074158 
	C701.067993,703.160217 701.067993,755.246216 701.067993,808.009949 
	C680.496582,808.009949 660.259521,808.009949 639.559937,808.037720 
z"/>
<path fill="#FF5700" opacity="1.000000" stroke="none" 
	d="
M930.097412,810.065430 
	C930.064880,859.224976 930.032410,908.384521 930.000122,957.544067 
	C929.998840,959.508789 930.000000,961.473511 930.000000,963.716736 
	C881.342957,963.716736 833.078308,963.716736 784.406616,963.716736 
	C784.406616,911.805054 784.406616,859.756104 784.406616,806.984070 
	C801.833191,806.984070 819.420959,806.984070 837.534790,807.342163 
	C839.999329,808.466736 841.933899,809.889954 843.876648,809.901062 
	C872.616272,810.065979 901.356995,810.043518 930.097412,810.065430 
z"/>
<path fill="#FF7700" opacity="1.000000" stroke="none" 
	d="
M930.559937,810.037720 
	C901.356995,810.043518 872.616272,810.065979 843.876648,809.901062 
	C841.933899,809.889954 839.999329,808.466736 837.997803,807.301331 
	C837.934692,755.818970 837.934692,704.735596 837.934692,652.986267 
	C858.187622,652.986267 878.093079,652.986267 898.459412,652.949585 
	C900.931885,653.608521 902.940063,654.898071 904.955627,654.909729 
	C930.683838,655.059021 956.413086,655.025208 982.614380,655.059021 
	C983.086609,706.496216 983.086609,757.912170 983.086609,810.009949 
	C965.500183,810.009949 948.261353,810.009949 930.559937,810.037720 
z"/>
<path fill="#FFA400" opacity="1.000000" stroke="none" 
	d="
M395.079590,649.912842 
	C392.999146,650.275269 390.919800,650.945435 388.838043,650.952942 
	C364.844971,651.039368 340.851501,651.025330 316.385834,651.058960 
	C293.798676,651.080017 271.683807,651.080017 248.985336,651.080017 
	C248.985336,600.102722 248.985336,549.543762 248.939850,498.522614 
	C297.314606,498.051239 345.734802,498.042114 394.584778,498.509094 
	C395.036224,549.294434 395.057922,599.603638 395.079590,649.912842 
z"/>
<path fill="#FFA400" opacity="1.000000" stroke="none" 
	d="
M701.530151,651.042236 
	C698.986145,650.716125 696.905334,650.053406 694.822266,650.046448 
	C669.838318,649.963379 644.854065,649.977356 619.429565,649.488525 
	C618.957703,598.694214 618.926208,548.377441 618.894775,498.060638 
	C666.981995,498.050812 715.069275,498.041016 763.631042,498.045776 
	C764.070374,546.853088 764.035095,595.645752 764.000183,644.438477 
	C763.998779,646.414551 764.000000,648.390625 764.000000,651.010315 
	C743.151184,651.010315 722.571777,651.010315 701.530151,651.042236 
z"/>
<path fill="#060708" opacity="1.000000" stroke="none" 
	d="
M618.432861,498.034119 
	C618.926208,548.377441 618.957703,598.694214 618.956299,649.472900 
	C598.145386,649.934875 577.367432,649.934875 555.990112,649.934875 
	C555.990112,702.224426 555.990112,754.100769 555.962402,806.439697 
	C524.952820,806.929504 493.971039,806.956604 462.527252,806.942932 
	C462.065247,754.817932 462.065247,702.733643 462.065247,649.986267 
	C439.809723,649.986267 417.905609,649.986267 395.540527,649.949585 
	C395.057922,599.603638 395.036224,549.294434 395.059845,498.522949 
	C469.393768,498.042999 543.682373,498.025299 618.432861,498.034119 
z"/>
</svg>